<svg xmlns="http://www.w3.org/2000/svg" width="1024" height="1024" viewBox="0 0 512 512" fill="none">
  <path d="M 406 256 C 404.7 257.31 403.36 258.58 402.03 259.82 C 400.71 261.06 399.36 262.27 398.04 263.44 C 396.72 264.62 395.39 265.76 394.09 266.87 C 392.8 267.98 391.51 269.06 390.26 270.11 C 389.01 271.17 387.79 272.19 386.61 273.2 C 385.43 274.2 384.29 275.18 383.2 276.15 C 382.11 277.11 381.07 278.06 380.09 279 C 379.1 279.94 378.17 280.86 377.31 281.79 C 376.45 282.71 375.64 283.62 374.9 284.55 C 374.17 285.47 373.5 286.39 372.9 287.32 C 372.3 288.26 371.77 289.19 371.3 290.15 C 370.84 291.11 370.45 292.08 370.13 293.08 C 369.8 294.08 369.55 295.09 369.36 296.14 C 369.17 297.19 369.05 298.26 368.98 299.37 C 368.92 300.48 368.92 301.62 368.98 302.8 C 369.03 303.97 369.14 305.19 369.3 306.44 C 369.45 307.7 369.66 308.99 369.91 310.33 C 370.15 311.67 370.44 313.05 370.75 314.47 C 371.06 315.89 371.41 317.35 371.77 318.86 C 372.13 320.36 372.52 321.91 372.91 323.5 C 373.3 325.09 373.71 326.72 374.11 328.38 C 374.5 330.04 374.91 331.74 375.29 333.47 C 375.67 335.19 376.05 336.96 376.39 338.74 C 376.74 340.53 377.07 342.34 377.35 344.17 C 377.64 345.99 377.9 347.85 378.11 349.7 C 378.32 351.55 378.49 353.42 378.61 355.28 C 378.72 357.15 378.79 359.02 378.79 360.87 C 378.79 362.73 378.74 364.58 378.62 366.41 C 378.5 368.23 378.31 370.05 378.05 371.82 C 377.79 373.6 377.47 375.36 377.07 377.07 C 376.66 378.77 376.19 380.45 375.64 382.07 C 375.08 383.69 374.46 385.27 373.75 386.78 C 373.05 388.29 372.27 389.75 371.42 391.14 C 370.56 392.52 369.63 393.85 368.63 395.09 C 367.63 396.34 366.56 397.51 365.42 398.6 C 364.28 399.69 363.07 400.7 361.8 401.62 C 360.53 402.54 359.19 403.38 357.81 404.13 C 356.42 404.88 354.97 405.54 353.48 406.1 C 351.99 406.67 350.44 407.14 348.86 407.53 C 347.28 407.91 345.64 408.2 343.99 408.4 C 342.34 408.61 340.64 408.71 338.93 408.74 C 337.22 408.76 335.48 408.7 333.73 408.55 C 331.98 408.41 330.21 408.17 328.44 407.87 C 326.67 407.57 324.89 407.18 323.11 406.74 C 321.34 406.29 319.56 405.76 317.8 405.19 C 316.03 404.61 314.27 403.97 312.54 403.29 C 310.8 402.6 309.08 401.86 307.38 401.09 C 305.68 400.32 304 399.49 302.35 398.66 C 300.7 397.82 299.08 396.95 297.49 396.07 C 295.9 395.19 294.34 394.28 292.81 393.39 C 291.29 392.49 289.79 391.58 288.34 390.69 C 286.88 389.8 285.46 388.91 284.07 388.05 C 282.68 387.19 281.33 386.34 280.01 385.53 C 278.69 384.72 277.4 383.94 276.15 383.2 C 274.89 382.47 273.67 381.76 272.47 381.12 C 271.28 380.48 270.11 379.88 268.96 379.34 C 267.82 378.8 266.7 378.32 265.59 377.91 C 264.49 377.49 263.41 377.14 262.33 376.86 C 261.26 376.57 260.2 376.36 259.15 376.22 C 258.09 376.07 257.05 376 256 376 C 254.95 376 253.91 376.07 252.85 376.22 C 251.8 376.36 250.74 376.57 249.67 376.86 C 248.59 377.14 247.51 377.49 246.41 377.91 C 245.3 378.32 244.18 378.8 243.04 379.34 C 241.89 379.88 240.72 380.48 239.53 381.12 C 238.33 381.76 237.11 382.47 235.85 383.2 C 234.6 383.94 233.31 384.72 231.99 385.53 C 230.67 386.34 229.32 387.19 227.93 388.05 C 226.54 388.91 225.12 389.8 223.66 390.69 C 222.21 391.58 220.71 392.49 219.19 393.39 C 217.66 394.28 216.1 395.19 214.51 396.07 C 212.92 396.95 211.3 397.82 209.65 398.66 C 208 399.49 206.32 400.32 204.62 401.09 C 202.92 401.86 201.2 402.6 199.46 403.29 C 197.73 403.97 195.97 404.61 194.2 405.19 C 192.44 405.76 190.66 406.29 188.89 406.74 C 187.11 407.18 185.33 407.57 183.56 407.87 C 181.79 408.17 180.02 408.41 178.27 408.55 C 176.52 408.7 174.78 408.76 173.07 408.74 C 171.36 408.71 169.66 408.61 168.01 408.4 C 166.36 408.2 164.72 407.91 163.14 407.53 C 161.56 407.14 160.01 406.67 158.52 406.1 C 157.03 405.54 155.58 404.88 154.19 404.13 C 152.81 403.38 151.47 402.54 150.2 401.62 C 148.93 400.7 147.72 399.69 146.58 398.6 C 145.44 397.51 144.37 396.34 143.37 395.09 C 142.37 393.85 141.44 392.52 140.58 391.14 C 139.73 389.75 138.95 388.29 138.25 386.78 C 137.54 385.27 136.92 383.69 136.36 382.07 C 135.81 380.45 135.34 378.77 134.93 377.07 C 134.53 375.36 134.21 373.6 133.95 371.82 C 133.69 370.05 133.5 368.23 133.38 366.41 C 133.26 364.58 133.21 362.73 133.21 360.87 C 133.21 359.02 133.28 357.15 133.39 355.28 C 133.51 353.42 133.68 351.55 133.89 349.7 C 134.1 347.85 134.36 345.99 134.65 344.17 C 134.93 342.34 135.26 340.53 135.61 338.74 C 135.95 336.96 136.33 335.19 136.71 333.47 C 137.09 331.74 137.5 330.04 137.89 328.38 C 138.29 326.72 138.7 325.09 139.09 323.5 C 139.48 321.91 139.87 320.36 140.23 318.86 C 140.59 317.35 140.94 315.89 141.25 314.47 C 141.56 313.05 141.85 311.67 142.09 310.33 C 142.34 308.99 142.55 307.7 142.7 306.44 C 142.86 305.19 142.97 303.97 143.02 302.8 C 143.08 301.62 143.08 300.48 143.02 299.37 C 142.95 298.26 142.83 297.19 142.64 296.14 C 142.45 295.09 142.2 294.08 141.87 293.08 C 141.55 292.08 141.16 291.11 140.7 290.15 C 140.23 289.19 139.7 288.26 139.1 287.32 C 138.5 286.39 137.83 285.47 137.1 284.55 C 136.36 283.62 135.55 282.71 134.69 281.79 C 133.83 280.86 132.9 279.94 131.91 279 C 130.93 278.06 129.89 277.11 128.8 276.15 C 127.71 275.18 126.57 274.2 125.39 273.2 C 124.21 272.19 122.99 271.17 121.74 270.11 C 120.49 269.06 119.2 267.98 117.91 266.87 C 116.61 265.76 115.28 264.62 113.96 263.44 C 112.64 262.27 111.29 261.06 109.97 259.82 C 108.64 258.58 107.3 257.31 106 256 C 104.7 254.69 103.4 253.35 102.14 251.97 C 100.88 250.59 99.64 249.18 98.45 247.74 C 97.27 246.3 96.11 244.83 95.02 243.33 C 93.93 241.83 92.88 240.3 91.9 238.75 C 90.93 237.2 90.01 235.63 89.18 234.04 C 88.34 232.45 87.57 230.83 86.89 229.22 C 86.22 227.6 85.61 225.96 85.11 224.33 C 84.6 222.69 84.18 221.05 83.86 219.41 C 83.55 217.78 83.32 216.14 83.19 214.51 C 83.07 212.89 83.04 211.27 83.12 209.68 C 83.2 208.08 83.38 206.5 83.66 204.95 C 83.94 203.4 84.33 201.87 84.81 200.38 C 85.29 198.89 85.88 197.42 86.57 196 C 87.25 194.58 88.04 193.2 88.91 191.86 C 89.78 190.53 90.76 189.23 91.81 187.99 C 92.87 186.75 94.01 185.56 95.23 184.42 C 96.45 183.29 97.76 182.2 99.13 181.18 C 100.5 180.15 101.95 179.18 103.45 178.27 C 104.95 177.36 106.52 176.51 108.13 175.71 C 109.74 174.92 111.41 174.18 113.11 173.5 C 114.8 172.82 116.55 172.2 118.32 171.63 C 120.08 171.06 121.88 170.54 123.69 170.08 C 125.49 169.61 127.33 169.19 129.15 168.82 C 130.98 168.45 132.82 168.12 134.65 167.83 C 136.47 167.54 138.3 167.29 140.1 167.07 C 141.91 166.85 143.7 166.66 145.46 166.49 C 147.22 166.32 148.97 166.18 150.67 166.04 C 152.37 165.9 154.05 165.79 155.68 165.67 C 157.3 165.55 158.9 165.44 160.44 165.32 C 161.98 165.2 163.49 165.08 164.93 164.93 C 166.38 164.79 167.78 164.64 169.13 164.46 C 170.48 164.28 171.77 164.08 173.01 163.84 C 174.26 163.6 175.45 163.33 176.58 163.01 C 177.72 162.7 178.8 162.35 179.84 161.95 C 180.87 161.54 181.85 161.1 182.79 160.59 C 183.73 160.09 184.62 159.53 185.47 158.92 C 186.31 158.3 187.12 157.63 187.89 156.89 C 188.66 156.16 189.38 155.36 190.09 154.5 C 190.79 153.64 191.46 152.72 192.11 151.74 C 192.76 150.75 193.38 149.7 193.99 148.6 C 194.6 147.49 195.19 146.32 195.78 145.09 C 196.37 143.87 196.95 142.58 197.53 141.25 C 198.12 139.92 198.69 138.53 199.29 137.1 C 199.88 135.67 200.47 134.18 201.09 132.67 C 201.71 131.16 202.33 129.6 202.99 128.02 C 203.65 126.45 204.32 124.83 205.03 123.21 C 205.73 121.59 206.47 119.94 207.24 118.29 C 208.01 116.65 208.81 114.99 209.65 113.34 C 210.49 111.7 211.37 110.04 212.29 108.42 C 213.21 106.8 214.16 105.18 215.17 103.61 C 216.17 102.04 217.22 100.48 218.3 98.98 C 219.39 97.48 220.52 96.01 221.69 94.61 C 222.87 93.2 224.08 91.84 225.34 90.55 C 226.59 89.27 227.89 88.04 229.22 86.89 C 230.55 85.75 231.92 84.67 233.31 83.69 C 234.71 82.7 236.15 81.79 237.61 80.98 C 239.06 80.17 240.55 79.45 242.06 78.83 C 243.56 78.21 245.09 77.69 246.63 77.27 C 248.17 76.85 249.73 76.53 251.29 76.32 C 252.86 76.11 254.43 76 256 76 C 257.57 76 259.14 76.11 260.71 76.32 C 262.27 76.53 263.83 76.85 265.37 77.27 C 266.91 77.69 268.44 78.21 269.94 78.83 C 271.45 79.45 272.94 80.17 274.39 80.98 C 275.85 81.79 277.29 82.7 278.69 83.69 C 280.08 84.67 281.45 85.75 282.78 86.89 C 284.11 88.04 285.41 89.27 286.66 90.55 C 287.92 91.84 289.13 93.2 290.31 94.61 C 291.48 96.01 292.61 97.48 293.7 98.98 C 294.78 100.48 295.83 102.04 296.83 103.61 C 297.84 105.18 298.79 106.8 299.71 108.42 C 300.63 110.04 301.51 111.7 302.35 113.34 C 303.19 114.99 303.99 116.65 304.76 118.29 C 305.53 119.94 306.27 121.59 306.97 123.21 C 307.68 124.83 308.35 126.45 309.01 128.02 C 309.67 129.6 310.29 131.16 310.91 132.67 C 311.53 134.18 312.12 135.67 312.71 137.1 C 313.31 138.53 313.88 139.92 314.47 141.25 C 315.05 142.58 315.63 143.87 316.22 145.09 C 316.81 146.32 317.4 147.49 318.01 148.6 C 318.62 149.7 319.24 150.75 319.89 151.74 C 320.54 152.72 321.21 153.64 321.91 154.5 C 322.62 155.36 323.34 156.16 324.11 156.89 C 324.88 157.63 325.69 158.3 326.53 158.92 C 327.38 159.53 328.27 160.09 329.21 160.59 C 330.15 161.1 331.13 161.54 332.16 161.95 C 333.2 162.35 334.28 162.7 335.42 163.01 C 336.55 163.33 337.74 163.6 338.99 163.84 C 340.23 164.08 341.52 164.28 342.87 164.46 C 344.22 164.64 345.62 164.79 347.07 164.93 C 348.51 165.08 350.02 165.2 351.56 165.32 C 353.1 165.44 354.7 165.55 356.32 165.67 C 357.95 165.79 359.63 165.9 361.33 166.04 C 363.03 166.18 364.78 166.32 366.54 166.49 C 368.3 166.66 370.09 166.85 371.9 167.07 C 373.7 167.29 375.53 167.54 377.35 167.83 C 379.18 168.12 381.02 168.45 382.85 168.82 C 384.67 169.19 386.51 169.61 388.31 170.08 C 390.12 170.54 391.92 171.06 393.68 171.63 C 395.45 172.2 397.2 172.82 398.89 173.5 C 400.59 174.18 402.26 174.92 403.87 175.71 C 405.48 176.51 407.05 177.36 408.55 178.27 C 410.05 179.18 411.5 180.15 412.87 181.18 C 414.24 182.2 415.55 183.29 416.77 184.42 C 417.99 185.56 419.13 186.75 420.19 187.99 C 421.24 189.23 422.22 190.53 423.09 191.86 C 423.96 193.2 424.75 194.58 425.43 196 C 426.12 197.42 426.71 198.89 427.19 200.38 C 427.67 201.87 428.06 203.4 428.34 204.95 C 428.62 206.5 428.8 208.08 428.88 209.68 C 428.96 211.27 428.93 212.89 428.81 214.51 C 428.68 216.14 428.45 217.78 428.14 219.41 C 427.82 221.05 427.4 222.69 426.89 224.33 C 426.39 225.96 425.78 227.6 425.11 229.22 C 424.43 230.83 423.66 232.45 422.82 234.04 C 421.99 235.63 421.07 237.2 420.1 238.75 C 419.12 240.3 418.07 241.83 416.98 243.33 C 415.89 244.83 414.73 246.3 413.55 247.74 C 412.36 249.18 411.12 250.59 409.86 251.97 C 408.6 253.35 407.3 254.69 406 256 Z" fill="#8c7cf6"/>
</svg>
